<svg width="512" height="512" viewBox="0 0 512 512" fill="none" xmlns="http://www.w3.org/2000/svg">
<path d="M5.25096 161.903C-22.7807 66.1249 66.127 -22.7927 161.921 5.25081L220.532 22.4277C243.699 29.2114 268.326 29.2114 291.494 22.4277L350.104 5.25081C445.86 -22.7799 534.794 66.1249 506.749 161.916L489.572 220.524C482.788 243.691 482.788 268.318 489.572 291.485L506.749 350.106C534.794 445.871 445.873 534.802 350.092 506.745L291.494 489.569C268.318 482.78 243.682 482.78 220.506 489.569L161.921 506.733C66.127 534.763 -22.7935 445.859 5.25096 350.068L22.4284 291.472C29.2123 268.305 29.2123 243.666 22.4284 220.486L5.25096 161.903Z" fill="#a77a5b"/>
</svg>
