<svg xmlns="http://www.w3.org/2000/svg" viewBox="0 0 213.15 315.88"><defs><style>.cls-1,.cls-2{fill:#ffc735;}.cls-1{stroke:#010101;stroke-width:11.26px;}.cls-1,.cls-3{stroke-miterlimit:10;}.cls-3{fill:#009ca3;stroke:#231f20;stroke-width:5.01px;}</style></defs><g id="Layer_2" data-name="Layer 2"><g id="Layer_1-2" data-name="Layer 1"><polygon class="cls-1" points="56.2 166.46 56.29 166.52 63.06 171.23 64.79 172.44 68.93 175.32 70.78 176.6 78.51 181.98 86.24 187.35 93.97 192.73 101.69 198.1 109.42 203.47 117.15 208.85 124.88 214.22 132.6 219.6 140.33 224.97 148.06 230.35 155.78 235.72 163.51 241.1 171.24 246.47 178.97 251.84 179.75 250.48 180.55 249.11 181.34 247.74 182.13 246.37 182.92 245 183.71 243.63 184.5 242.26 185.29 240.89 186.08 239.52 186.87 238.15 187.66 236.78 188.45 235.41 189.25 234.04 190.04 232.67 190.83 231.3 191.62 229.93 183.1 225.93 174.58 221.92 166.06 217.92 157.55 213.91 149.03 209.91 140.51 205.9 131.99 201.9 123.47 197.89 114.96 193.89 106.44 189.88 97.92 185.88 89.4 181.87 80.88 177.87 72.37 173.86 70.32 172.9 65.77 170.76 63.85 169.86 56.39 166.35 56.29 166.3 55.33 165.85 56.2 166.46"/><polygon class="cls-1" points="76.41 210.29 81.78 218.01 87.16 225.74 92.53 233.47 97.9 241.19 103.28 248.92 108.65 256.65 114.03 264.38 119.4 272.1 124.78 279.83 130.15 287.56 135.52 295.29 134.16 296.08 132.78 296.87 131.41 297.66 130.05 298.45 128.68 299.24 127.31 300.03 125.94 300.82 124.57 301.61 123.2 302.4 121.83 303.19 120.46 303.98 119.09 304.77 117.72 305.57 116.35 306.36 114.98 307.15 113.61 307.94 109.6 299.42 105.6 290.9 101.59 282.38 97.59 273.87 93.59 265.35 89.58 256.83 85.58 248.31 81.57 239.79 77.57 231.28 73.56 222.76 69.56 214.24 65.55 205.72 61.55 197.2 57.54 188.69 56.58 186.64 54.44 182.08 53.54 180.17 50.03 172.71 49.98 172.61 49.53 171.65 50.14 172.52 50.2 172.61 54.91 179.38 56.12 181.11 58.99 185.25 60.28 187.1 65.66 194.83 71.03 202.56 76.41 210.29"/><polygon class="cls-1" points="207.52 146.87 207.52 148.45 207.52 150.03 207.52 151.61 207.52 153.19 207.52 154.78 207.52 156.36 207.52 157.94 207.52 159.52 207.52 161.1 207.52 162.68 207.52 164.26 207.52 165.84 207.52 167.43 207.52 169.01 207.52 170.59 198.14 169.8 188.76 169.01 179.38 168.22 170 167.43 160.62 166.64 151.24 165.84 141.86 165.05 132.48 164.26 123.11 163.47 113.73 162.68 104.35 161.89 94.97 161.1 85.59 160.31 76.21 159.52 73.96 159.33 68.94 158.91 66.83 158.73 58.62 158.04 58.51 158.03 57.45 157.94 58.51 157.85 58.62 157.84 66.83 157.15 68.94 156.97 73.96 156.55 76.21 156.36 85.59 155.56 94.97 154.78 104.35 153.98 113.73 153.19 123.11 152.4 132.48 151.61 141.86 150.82 151.24 150.03 160.62 149.24 170 148.45 179.38 147.66 188.76 146.87 198.14 146.08 207.52 145.28 207.52 146.87"/><polygon class="cls-1" points="117.15 107.03 124.87 101.65 132.6 96.28 140.33 90.9 148.06 85.53 155.78 80.15 163.51 74.78 171.24 69.4 178.96 64.03 179.75 65.4 180.54 66.77 181.34 68.14 182.13 69.51 182.92 70.88 183.71 72.25 184.5 73.62 185.29 74.99 186.08 76.36 186.87 77.73 187.66 79.1 188.45 80.47 189.24 81.83 190.03 83.2 190.83 84.58 191.62 85.94 183.1 89.95 174.58 93.95 166.06 97.96 157.54 101.96 149.03 105.97 140.51 109.97 131.99 113.98 123.47 117.98 114.95 121.99 106.44 125.99 97.92 130 89.4 134 80.88 138.01 72.37 142.01 70.33 142.97 65.77 145.11 63.85 146.02 56.39 149.52 56.29 149.57 55.33 150.02 56.2 149.41 56.29 149.35 63.06 144.65 64.8 143.44 68.93 140.56 70.78 139.27 78.51 133.9 86.24 128.52 93.97 123.15 101.69 117.77 109.42 112.4 117.15 107.03"/><polygon class="cls-1" points="77.57 84.6 81.57 76.08 85.58 67.56 89.58 59.05 93.59 50.53 97.59 42.01 101.59 33.49 105.6 24.97 109.6 16.46 113.61 7.94 114.98 8.73 116.35 9.52 117.72 10.31 119.09 11.1 120.46 11.89 121.83 12.68 123.2 13.47 124.57 14.26 125.94 15.05 127.31 15.85 128.68 16.64 130.05 17.43 131.41 18.22 132.78 19.01 134.16 19.8 135.52 20.59 130.15 28.32 124.78 36.05 119.4 43.77 114.03 51.5 108.65 59.23 103.28 66.95 97.9 74.68 92.53 82.41 87.16 90.14 81.78 97.86 76.41 105.59 71.03 113.32 65.66 121.04 60.28 128.77 58.99 130.62 56.12 134.76 54.91 136.5 50.2 143.27 50.14 143.36 49.53 144.23 49.98 143.27 50.03 143.17 53.54 135.71 54.44 133.79 56.58 129.23 57.54 127.19 61.55 118.67 65.55 110.15 69.56 101.64 73.56 93.12 77.57 84.6"/><polygon class="cls-2" points="56.2 166.46 56.29 166.52 63.06 171.23 64.79 172.44 68.93 175.32 70.78 176.6 78.51 181.98 86.24 187.35 93.97 192.73 101.69 198.1 109.42 203.47 117.15 208.85 124.88 214.22 132.6 219.6 140.33 224.97 148.06 230.35 155.78 235.72 163.51 241.1 171.24 246.47 178.97 251.84 179.75 250.48 180.55 249.11 181.34 247.74 182.13 246.37 182.92 245 183.71 243.63 184.5 242.26 185.29 240.89 186.08 239.52 186.87 238.15 187.66 236.78 188.45 235.41 189.25 234.04 190.04 232.67 190.83 231.3 191.62 229.93 183.1 225.93 174.58 221.92 166.06 217.92 157.55 213.91 149.03 209.91 140.51 205.9 131.99 201.9 123.47 197.89 114.96 193.89 106.44 189.88 97.92 185.88 89.4 181.87 80.88 177.87 72.37 173.86 70.32 172.9 65.77 170.76 63.85 169.86 56.39 166.35 56.29 166.3 55.33 165.85 56.2 166.46"/><polygon class="cls-2" points="76.41 210.29 81.78 218.01 87.16 225.74 92.53 233.47 97.9 241.19 103.28 248.92 108.65 256.65 114.03 264.38 119.4 272.1 124.78 279.83 130.15 287.56 135.52 295.29 134.16 296.08 132.78 296.87 131.41 297.66 130.05 298.45 128.68 299.24 127.31 300.03 125.94 300.82 124.57 301.61 123.2 302.4 121.83 303.19 120.46 303.98 119.09 304.77 117.72 305.57 116.35 306.36 114.98 307.15 113.61 307.94 109.6 299.42 105.6 290.9 101.59 282.38 97.59 273.87 93.59 265.35 89.58 256.83 85.58 248.31 81.57 239.79 77.57 231.28 73.56 222.76 69.56 214.24 65.55 205.72 61.55 197.2 57.54 188.69 56.58 186.64 54.44 182.08 53.54 180.17 50.03 172.71 49.98 172.61 49.53 171.65 50.14 172.52 50.2 172.61 54.91 179.38 56.12 181.11 58.99 185.25 60.28 187.1 65.66 194.83 71.03 202.56 76.41 210.29"/><polygon class="cls-2" points="207.52 146.87 207.52 148.45 207.52 150.03 207.52 151.61 207.52 153.19 207.52 154.78 207.52 156.36 207.52 157.94 207.52 159.52 207.52 161.1 207.52 162.68 207.52 164.26 207.52 165.84 207.52 167.43 207.52 169.01 207.52 170.59 198.14 169.8 188.76 169.01 179.38 168.22 170 167.43 160.62 166.64 151.24 165.84 141.86 165.05 132.48 164.26 123.11 163.47 113.73 162.68 104.35 161.89 94.97 161.1 85.59 160.31 76.21 159.52 73.96 159.33 68.94 158.91 66.83 158.73 58.62 158.04 58.51 158.03 57.45 157.94 58.51 157.85 58.62 157.84 66.83 157.15 68.94 156.97 73.96 156.55 76.21 156.36 85.59 155.56 94.97 154.78 104.35 153.98 113.73 153.19 123.11 152.4 132.48 151.61 141.86 150.82 151.24 150.03 160.62 149.24 170 148.45 179.38 147.66 188.76 146.87 198.14 146.08 207.52 145.28 207.52 146.87"/><polygon class="cls-2" points="117.15 107.03 124.87 101.65 132.6 96.28 140.33 90.9 148.06 85.53 155.78 80.15 163.51 74.78 171.24 69.4 178.96 64.03 179.75 65.4 180.54 66.77 181.34 68.14 182.13 69.51 182.92 70.88 183.71 72.25 184.5 73.62 185.29 74.99 186.08 76.36 186.87 77.73 187.66 79.1 188.45 80.47 189.24 81.83 190.03 83.2 190.83 84.58 191.62 85.94 183.1 89.95 174.58 93.95 166.06 97.96 157.54 101.96 149.03 105.97 140.51 109.97 131.99 113.98 123.47 117.98 114.95 121.99 106.44 125.99 97.92 130 89.4 134 80.88 138.01 72.37 142.01 70.33 142.97 65.77 145.11 63.85 146.02 56.39 149.52 56.29 149.57 55.33 150.02 56.2 149.41 56.29 149.35 63.06 144.65 64.8 143.44 68.93 140.56 70.78 139.27 78.51 133.9 86.24 128.52 93.97 123.15 101.69 117.77 109.42 112.4 117.15 107.03"/><polygon class="cls-2" points="77.57 84.6 81.57 76.08 85.58 67.56 89.58 59.05 93.59 50.53 97.59 42.01 101.59 33.49 105.6 24.97 109.6 16.46 113.61 7.94 114.98 8.73 116.35 9.52 117.72 10.31 119.09 11.1 120.46 11.89 121.83 12.68 123.2 13.47 124.57 14.26 125.94 15.05 127.31 15.85 128.68 16.64 130.05 17.43 131.41 18.22 132.78 19.01 134.16 19.8 135.52 20.59 130.15 28.32 124.78 36.05 119.4 43.77 114.03 51.5 108.65 59.23 103.28 66.95 97.9 74.68 92.53 82.41 87.16 90.14 81.78 97.86 76.41 105.59 71.03 113.32 65.66 121.04 60.28 128.77 58.99 130.62 56.12 134.76 54.91 136.5 50.2 143.27 50.14 143.36 49.53 144.23 49.98 143.27 50.03 143.17 53.54 135.71 54.44 133.79 56.58 129.23 57.54 127.19 61.55 118.67 65.55 110.15 69.56 101.64 73.56 93.12 77.57 84.6"/><rect class="cls-3" x="8.25" y="132.19" width="51.5" height="51.5" rx="11.88" transform="translate(-101.72 70.3) rotate(-45)"/></g></g></svg>